Patient4_TMGait_0pt5_01_right_12_EMG.mot
version=1
nRows=29
nColumns=33
inDegrees=no
endheader
time	1LAddLong	2LGlutMax	3LGlutMed	4LIliopsoas	5LSemiMemb	6LBicFemLong	7LRecFem	8LVastMed	9LVastLat	10LGasMed	11LTibAnt	12lTibPost	13LPeroneusLong	14LSol	15LExtDigLong	16LFlexDigLong	17RAddLong	18RGlutMax	19RGlutMed	20RIliopsoas	21RSemiMemb	22RBicFemLong	23RRecFem	24RVastMed	25RVastLat	26RGasMed	27RTibAnt	28RTibPost	29RPeroneusLong	30RSol	31RExtDigLong	32RFlexDigLong
16.838	-0.004272	-0.008545	-0.026703	0.018616	-0.021362	-0.02655	0.31479	-0.011597	0.052032	-0.10773	0.003052	-0.009003	-0.034332	-0.15076	0.025482	-0.00885	0.048218	0.006714	0.020294	-0.040436	-0.11475	0.12314	0.004883	0.08728	0.019379	-0.006256	0.027313	0.000458	0.10605	0.002747	-0.004425	-0.004578
16.839	-0.00061	-0.010834	0.066986	0.008087	-0.010071	-0.014801	0.28732	-0.003662	0.002441	-0.10208	0.006714	0.012207	-0.04837	-0.25253	0.028687	-0.002899	0.032043	-0.014496	0.4007	-0.00946	-0.21164	0.15015	0.061646	0.016174	0.005798	-0.010529	0.035858	-0.000153	-0.41565	0.004425	-0.003052	-0.007019
16.84	0.011139	0.023193	0.074005	0.016174	0.005035	-0.002594	0.28702	0.002594	-0.029907	-0.14114	0.009308	-0.001526	-0.028687	-0.089569	0.054016	-0.018005	-0.01297	-0.028076	0.22446	0.041046	-0.46585	0.11063	0.023193	-0.016632	-0.005951	-0.01297	0.002441	0	-0.27496	0.00824	-0.003662	-0.011749
16.841	0.053406	0.015717	0.001373	0.008392	-0.010834	0.027161	0.28275	0.000458	-0.02182	-0.10361	-0.005951	-0.006561	0.016327	0.034332	0.057983	-0.002747	-0.025787	-0.064392	0.23712	0.076294	-0.30945	0.072479	0.035706	-0.030975	0.004883	-0.013275	-0.042725	-0.00412	0.41702	0.036316	-0.007629	-0.001984
16.842	0.017548	-0.031281	-0.007935	-0.013275	-0.002136	0.029144	0.27023	0.006104	-0.014038	-0.030365	-0.001831	-0.004272	0.028381	0.14435	0.066681	0.00351	-0.016479	-0.066223	0.23514	0.11734	0.098267	0.03891	0.024719	0.015106	0.002747	-0.012054	-0.015259	-0.002289	0.242	0.017242	-0.004578	-0.001373
16.843	-0.006409	-0.041656	-0.037994	-0.001221	0.018311	0.015411	0.26749	0.003662	-0.009155	0.016327	-0.011444	-0.00824	0.007019	0.15305	0.088806	-0.006561	0.02594	-0.052338	0.065765	0.13107	0.13458	0.045776	0.021973	0.007324	0.012817	-0.006256	0.008545	-0.001373	-0.58731	-0.004883	-0.003662	0.006256
16.844	0.002441	-0.022888	-0.032806	-0.000763	0.035553	-0.005341	0.23193	0.005188	-0.02533	0.025635	-0.054016	-0.00473	-0.013123	0.082245	0.15289	-0.001831	0.063324	-0.04364	0.011292	0.09613	0.031738	-0.000763	0.006409	-0.006104	0.007782	-0.011292	0.019531	-0.004272	-0.62882	0.045624	-0.002747	0.000916
16.845	-0.002899	-0.035553	-0.045319	0.007019	0.024719	0.037994	0.19684	0.012817	-0.042572	0.038605	-0.1416	-0.005646	-0.027466	0.035858	0.13702	-0.010223	0.06073	0.011597	0.03891	0.058899	-0.034027	-0.02594	-0.013733	0.021515	0.01236	-0.008392	-0.001373	-0.002441	-0.016174	0.0914	-0.005493	0.001526
16.846	0	-0.039673	-0.02182	0.001068	0.007477	0.012665	0.2359	0.00412	-0.005798	0.006409	-0.12711	-0.00473	-0.020905	0.020599	0.053406	-0.000458	0.041809	-0.03891	0.0177	0.021362	0.023956	-0.007324	0.05249	0.018463	0.032349	-0.009003	-0.028687	-0.001678	0.41229	0.094299	-0.00473	0.001221
16.847	-0.003052	-0.029297	-0.032959	0.000763	-0.009308	-0.032501	0.19684	-0.003052	-0.013275	-0.026855	-0.068512	-0.005798	0.007324	0.072479	-0.093231	-0.004578	0.019531	0.011749	0.075989	0.014038	0.005951	-0.049286	0.035706	0.037994	0.017395	-0.009613	-0.01709	-0.002136	0.36255	0.026855	-0.004272	0.010986
16.848	-0.000763	-0.03418	-0.049896	0.010529	-0.026398	-0.042725	0.15671	0.003967	0.009766	-0.073395	0.014954	-0.002594	0.079346	0.11688	-0.14343	0.005188	0.005646	0.062103	0.042267	0.014648	-0.001678	-0.041046	0.06897	0.030823	0.023651	-0.017548	0.048828	0.003204	-0.3273	0.020447	0	-0.011292
16.849	0.000458	-0.044556	-0.051117	0.007935	-0.015564	-0.010376	0.19592	0.009155	0.055389	-0.076599	0.13321	-0.009766	0.13947	0.15884	-0.030975	0.004425	-0.023651	0.080414	0.06897	-0.014038	-0.1181	-0.019836	0.068817	-0.006256	0.014038	-0.012817	0.037079	-0.000916	-0.59769	0.018768	-0.004578	-0.002747
16.85	0.00351	-0.053253	-0.06485	0.010834	0.013885	-0.014648	0.21164	0.000458	0.052948	-0.049133	0.097351	-0.011292	0.11093	0.10819	0.072327	-0.007019	-0.048065	0.001221	0.10117	-0.010071	-0.10437	0.011444	0.094604	-0.081329	0.007782	-0.010529	-0.019073	0.001678	0.25482	0.000458	-0.002441	-0.006714
16.851	0.010529	-0.045929	-0.075226	0.007782	0.02121	-0.011444	0.19608	-0.00412	0.053101	-0.008087	0.17883	-0.005493	0.022583	0.12222	0.043182	-0.011139	-0.071564	0.055084	0.11581	-0.006714	-0.043335	0.002747	0.037384	-0.059509	0.019073	-0.012817	-0.046844	-0.000458	0.81802	0.001984	-0.004272	-0.00412
16.852	0.005493	-0.058441	-0.10071	0.011597	0.015717	0.009308	0.20828	-0.003357	0.030518	-0.015259	0.11047	-0.006409	0.005035	0.062408	-0.034637	-0.005798	-0.07431	0.043793	0.069275	-0.011597	0.011749	0.037384	0.013733	-0.027466	0.014801	-0.013733	-0.057678	-0.000305	0.92483	0.005951	-0.004425	-0.010681
16.853	0.013275	-0.081787	-0.12848	-0.016174	-0.001373	0.018158	0.21637	-0.001831	0.013733	0.014496	0.10742	-0.004425	-0.091553	-0.048676	-0.11643	-0.009918	-0.083313	0.019073	0.010986	0.012512	-0.020905	0.080261	0.053253	-0.002594	0.021362	-0.012054	-0.021362	-0.000458	0.32928	0.024414	-0.004272	-0.010681
16.854	0	-0.053406	-0.12131	0.005341	-0.021362	0.006256	0.20584	0.003052	0.006409	-0.009613	0.060577	-0.009003	-0.12451	-0.066376	-0.34668	-0.003815	-0.086212	-0.009613	0.037689	0.059204	-0.008545	0.086975	0.066376	-0.039368	-0.005341	-0.007782	0.002136	-0.005493	0.079193	0.046234	-0.006561	-0.005341
16.855	0.012665	-0.023651	-0.079956	0.00885	-0.030975	-0.009918	0.22247	-0.000458	0.010986	-0.091705	-0.069122	-0.005951	-0.16571	-0.05722	-0.35568	0.007935	-0.063934	0.022583	0.11307	0.042572	-0.13947	0.066986	0.065918	0.002441	0.007629	-0.012207	0.019836	-0.00824	0.24139	0.045776	-0.004578	-0.023956
16.856	0.006104	-0.029297	-0.11185	0.020447	-0.014954	-0.066223	0.22186	-0.00061	0.010071	-0.07782	-0.060272	-0.007477	-0.19547	-0.070953	-0.17593	0.000305	-0.036926	0.018921	0.02655	0.006561	-0.24994	0.061188	0.054626	-0.014496	-0.004883	-0.008392	0.014801	-0.002289	0.17334	0.095062	-0.000305	-0.016022
16.857	0.002747	-0.044403	-0.13138	0.001068	0.012207	-0.077972	0.24933	0.00351	-0.009308	-0.082703	0.000458	-0.00473	0.077667	-0.099487	0.11444	-0.002747	-0.024872	0.036163	0.2536	-0.10407	-0.27618	0.045319	0.024567	-0.032806	-0.00061	-0.003967	-0.029297	0	0.20294	0.080261	-0.00351	-0.013428
16.858	0.006866	-0.045319	0.022278	-0.005646	0.035858	-0.10239	0.23819	0.008545	-0.003204	-0.013885	-0.022736	-0.003815	0.040894	-0.17578	0.19073	0.009003	-0.024261	0.032043	0.26916	-0.0354	-0.2243	0.076141	-0.049438	0.046997	-0.006104	-0.007019	-0.021362	0	0.25207	0.061798	-0.003662	-0.008392
16.859	0.002747	-0.054932	0.016632	-0.001373	0.027008	-0.09964	0.25345	0.005341	-0.004883	-0.034332	-0.086517	-0.005951	0.21057	-0.18036	0.16037	0.01297	-0.005188	0.010071	0.15549	0.000153	0.001831	0.066681	-0.024719	0.13641	0.036621	-0.015869	-0.001678	-0.009003	0.29343	0.0914	-0.002441	-0.011902
16.86	-0.010376	-0.031586	-0.043945	0.000916	-0.002136	-0.027466	0.26932	0.008392	-0.018311	0.045471	-0.11093	-0.003662	0.19867	-0.13611	0.13825	0.017395	0.015106	0.012817	0.14847	-0.006256	0.11612	0.021973	0.006561	0.1004	0.040588	-0.016174	0.002899	-0.00824	0.52338	0.10284	-0.001678	-0.002136
16.861	-0.009308	-0.011292	-0.059662	0.011902	-0.045776	0.031281	0.26474	0.00946	-0.005341	0.00824	0.023499	-0.006409	0.11337	-0.060577	0.15503	-0.019073	0.025177	0.027161	0.10086	-0.019531	-0.038605	0.009003	0.028381	0.052338	0.025177	-0.009613	-0.00061	-0.006256	-0.064392	0.070648	-0.001984	-0.000153
16.862	-0.00473	-0.049896	-0.12528	0.009155	-0.007629	0.042725	0.25421	0.007629	0.007019	-0.10147	0.000916	-0.002899	0.080872	-0.052795	0.1152	0.001526	0.03067	-0.029755	0.15427	0.010223	-0.087128	-0.037994	0.055847	-0.025482	0.033569	-0.005493	-0.010223	-0.001526	-0.81986	0.04715	-0.004883	-0.00351
16.863	-0.00412	-0.031586	-0.11368	0.021515	0.072632	0.025024	0.25955	0.01236	0.006866	-0.13565	-0.018158	0.000763	-0.044556	-0.052185	0.051727	0.072327	0.009155	0.016937	0.087433	0.008545	-0.12619	-0.065308	0.032196	-0.014191	0.049896	-0.002899	-0.022583	-0.005341	-0.32455	0.034943	-0.001221	-0.006104
16.864	0.004883	-0.010376	-0.092926	0.013428	0.039215	-0.019073	0.27542	0.005798	0.005188	-0.007782	-0.021973	-0.002289	-0.048065	-0.076141	0.031738	-0.009766	-0.024261	0.0354	0.05127	-0.002899	-0.1474	-0.045319	0.079346	-0.023804	0.026855	-0.007172	0.000153	-0.006714	0.050812	0.05249	-0.00061	0.002594
16.865	0.012512	-0.032959	-0.12421	0.011444	-0.065918	-0.054626	0.25299	0.006409	0.001373	0.12466	-0.002136	0.005035	-0.007629	-0.067139	0.029144	-0.31464	-0.044708	0.033569	0.03067	-0.00412	-0.1828	0.034027	0.084839	0.007172	0.10193	-0.009766	0.00824	-0.005188	0.045319	0.063934	-0.001526	-0.002594
16.866	0.023651	-0.029297	-0.1445	0.014038	-0.087433	-0.08606	0.24216	0.005646	0.001984	0.41489	-0.005493	0.002747	-0.054321	-0.083008	0.01709	0.15396	-0.039368	0.023346	-0.049744	0.013733	-0.28168	0.12894	0.097046	0.012054	0.10529	-0.009155	0.000916	-0.005341	0.15945	0.055389	-0.001221	-0.007629
